<svg xmlns="http://www.w3.org/2000/svg" viewBox="0 0 120 132" role="img" aria-label="open hand gesture"><g fill="none" stroke="currentColor" stroke-width="3" stroke-linecap="round" stroke-linejoin="round"><path d="M39 124 L39 108 C31 103 21 88 12 74 C7 66 7 61 12 59 C17 57 22 64 32 75 L32 32 C32 20 42 19 44 30 L47 65 L47 17 C47 6 58 6 60 17 L62 63 L65 27 C66 15 77 17 78 28 L79 67 L87 43 C91 33 101 36 99 47 L96 85 C95 102 88 111 83 117 L83 124"/><path d="M33 78 C45 83 48 91 46 100 M52 84 C62 87 71 87 80 83 M43 113 L80 113"/></g></svg>
