<svg xmlns="http://www.w3.org/2000/svg" viewBox="0 0 808 149"><path d=" M8 22 L800 22 M404 5 L404 144" fill="none" stroke="rgba(183.6,183.6,183.6,0.22)" stroke-width="0.7" stroke-linecap="round"/><g transform="translate(8 0)"><path d=" M124 143 C116 135 89 132 71 124 C54 115 21 117 17 105 L17 98 C17 88 39 88 39 98 L46 113 C50 119 66 118 72 117 L85 88 C85 75 107 74 107 88 L112 113 C117 118 131 117 139 116 L153 79 C153 66 175 66 175 79 L181 113 C187 119 199 120 209 118 L221 89 C221 75 244 75 244 89 L255 118 C260 128 272 128 282 124 L313 114 C329 109 340 120 327 128 L295 141 C282 146 276 146 272 143" fill="none" stroke="rgba(183.6,183.6,183.6,0.8)" stroke-width="1.2" stroke-linecap="round"/><path d=" M129 137 C161 128 199 132 242 139" fill="none" stroke="rgba(183.6,183.6,183.6,0.35)" stroke-width="0.7" stroke-linecap="round"/><path d=" M287 128 C273 130 267 136 260 141" fill="none" stroke="rgba(183.6,183.6,183.6,0.35)" stroke-width="0.7" stroke-linecap="round"/><path d=" M28 101 L33 105" fill="none" stroke="rgba(255,181.04999999999998,51,0.15)" stroke-width="2.4" stroke-linecap="round"/><path d=" M96 91 L101 95" fill="none" stroke="rgba(255,181.04999999999998,51,0.15)" stroke-width="2.4" stroke-linecap="round"/><path d=" M164 81 L169 85" fill="none" stroke="rgba(255,181.04999999999998,51,0.15)" stroke-width="2.4" stroke-linecap="round"/><path d=" M232 91 L237 95" fill="none" stroke="rgba(255,181.04999999999998,51,0.15)" stroke-width="2.4" stroke-linecap="round"/><path d=" M323 121 L315 124" fill="none" stroke="rgba(255,181.04999999999998,51,0.15)" stroke-width="2.4" stroke-linecap="round"/></g><g transform="translate(784 0)"><g transform="scale(-1 1)"><path d=" M124 143 C116 135 89 132 71 124 C54 115 21 117 17 105 L17 98 C17 88 39 88 39 98 L46 113 C50 119 66 118 72 117 L85 88 C85 75 107 74 107 88 L112 113 C117 118 131 117 139 116 L153 79 C153 66 175 66 175 79 L181 113 C187 119 199 120 209 118 L221 89 C221 75 244 75 244 89 L255 118 C260 128 272 128 282 124 L313 114 C329 109 340 120 327 128 L295 141 C282 146 276 146 272 143" fill="none" stroke="rgba(183.6,183.6,183.6,0.8)" stroke-width="1.2" stroke-linecap="round"/><path d=" M129 137 C161 128 199 132 242 139" fill="none" stroke="rgba(183.6,183.6,183.6,0.35)" stroke-width="0.7" stroke-linecap="round"/><path d=" M287 128 C273 130 267 136 260 141" fill="none" stroke="rgba(183.6,183.6,183.6,0.35)" stroke-width="0.7" stroke-linecap="round"/><path d=" M28 101 L33 105" fill="none" stroke="rgba(255,181.04999999999998,51,0.15)" stroke-width="2.4" stroke-linecap="round"/><path d=" M96 91 L101 95" fill="none" stroke="rgba(255,181.04999999999998,51,0.15)" stroke-width="2.4" stroke-linecap="round"/><path d=" M164 81 L169 85" fill="none" stroke="rgba(255,181.04999999999998,51,0.15)" stroke-width="2.4" stroke-linecap="round"/><path d=" M232 91 L237 95" fill="none" stroke="rgba(255,181.04999999999998,51,0.15)" stroke-width="2.4" stroke-linecap="round"/><path d=" M323 121 L315 124" fill="none" stroke="rgba(255,181.04999999999998,51,0.15)" stroke-width="2.4" stroke-linecap="round"/></g></g></svg>